<!-- Generated by IcoMoon.io -->
<svg version="1.1" xmlns="http://www.w3.org/2000/svg" width="512" height="512" viewBox="0 0 512 512">
<title></title>
<g id="icomoon-ignore">
</g>
<path fill="#fff" d="M158.24 158.24c64.522 0 129.043 0 195.52 0 0 64.522 0 129.043 0 195.52-64.522 0-129.043 0-195.52 0 0-64.522 0-129.043 0-195.52z"></path>
<path fill="#fff" d="M158.24 366.24c20.179 0 40.361 0 61.152 0 0 3.981 0 7.962 0 12.064 3.981 0 7.962 0 12.064 0 0 4.118 0 8.237 0 12.48 4.118 0 8.237 0 12.48 0 0 3.981 0 7.962 0 12.064 7.962 0 15.925 0 24.128 0 0-3.981 0-7.962 0-12.064 4.118 0 8.237 0 12.48 0 0-4.118 0-8.237 0-12.48 3.981 0 7.962 0 12.064 0 0-3.981 0-7.962 0-12.064 20.18 0 40.361 0 61.152 0 0 3.981 0 7.962 0 12.064-3.981 0-7.962 0-12.064 0 0 4.118 0 8.237 0 12.48-4.118 0-8.237 0-12.48 0 0 3.981 0 7.962 0 12.064-3.981 0-7.962 0-12.064 0 0 3.981 0 7.962 0 12.064-3.981 0-7.962 0-12.064 0 0 4.118 0 8.237 0 12.48-4.118 0-8.237 0-12.48 0 0 3.981 0 7.962 0 12.064-3.981 0-7.962 0-12.064 0 0 4.118 0 8.237 0 12.48-4.118 0-8.237 0-12.48 0 0 3.981 0 7.962 0 12.064-7.962 0-15.924 0-24.128 0 0-3.981 0-7.962 0-12.064-4.118 0-8.237 0-12.48 0 0-4.118 0-8.237 0-12.48-3.981 0-7.962 0-12.064 0 0-3.981 0-7.962 0-12.064-4.118 0-8.237 0-12.48 0 0-4.118 0-8.237 0-12.48-3.981 0-7.962 0-12.064 0 0-3.981 0-7.962 0-12.064-3.982 0-7.962 0-12.064 0 0-3.981 0-7.962 0-12.064-4.118 0-8.237 0-12.48 0 0-4.118 0-8.237 0-12.48-3.981 0-7.962 0-12.064 0 0-3.981 0-7.962 0-12.064z"></path>
<path fill="#fff" d="M366.24 158.24c3.981 0 7.962 0 12.064 0 0 3.981 0 7.962 0 12.064 4.118 0 8.237 0 12.48 0 0 4.118 0 8.237 0 12.48 3.981 0 7.962 0 12.064 0 0 3.981 0 7.962 0 12.064 3.981 0 7.962 0 12.064 0 0 3.981 0 7.962 0 12.064 4.118 0 8.237 0 12.48 0 0 4.118 0 8.237 0 12.48 3.981 0 7.962 0 12.064 0 0 3.981 0 7.962 0 12.064 4.118 0 8.237 0 12.48 0 0 4.118 0 8.237 0 12.48 3.981 0 7.962 0 12.064 0 0 7.962 0 15.924 0 24.128-3.981 0-7.962 0-12.064 0 0 4.118 0 8.237 0 12.48-4.118 0-8.237 0-12.48 0 0 3.981 0 7.962 0 12.064-3.981 0-7.962 0-12.064 0 0 4.118 0 8.237 0 12.48-4.118 0-8.237 0-12.48 0 0 3.981 0 7.962 0 12.064-3.981 0-7.962 0-12.064 0 0 3.981 0 7.962 0 12.064-3.981 0-7.962 0-12.064 0 0 4.118 0 8.237 0 12.48-4.118 0-8.237 0-12.48 0 0 3.981 0 7.962 0 12.064-3.981 0-7.962 0-12.064 0 0-20.18 0-40.361 0-61.152 3.981 0 7.962 0 12.064 0 0-3.981 0-7.962 0-12.064 4.118 0 8.237 0 12.48 0 0-4.118 0-8.237 0-12.48 3.981 0 7.962 0 12.064 0 0-7.962 0-15.924 0-24.128-3.981 0-7.962 0-12.064 0 0-4.118 0-8.237 0-12.48-4.118 0-8.237 0-12.48 0 0-3.981 0-7.962 0-12.064-3.981 0-7.962 0-12.064 0 0-20.179 0-40.361 0-61.152z"></path>
<path fill="#fff" d="M133.696 158.24c3.981 0 7.962 0 12.064 0 0 20.179 0 40.361 0 61.152-3.981 0-7.962 0-12.064 0 0 3.981 0 7.962 0 12.064-4.118 0-8.237 0-12.48 0 0 4.118 0 8.237 0 12.48-3.981 0-7.962 0-12.064 0 0 7.962 0 15.925 0 24.128 3.981 0 7.962 0 12.064 0 0 4.118 0 8.237 0 12.48 4.118 0 8.237 0 12.48 0 0 3.981 0 7.962 0 12.064 3.981 0 7.962 0 12.064 0 0 20.18 0 40.361 0 61.152-3.981 0-7.962 0-12.064 0 0-3.981 0-7.962 0-12.064-4.118 0-8.237 0-12.48 0 0-4.118 0-8.237 0-12.48-3.981 0-7.962 0-12.064 0 0-3.981 0-7.962 0-12.064-3.981 0-7.962 0-12.064 0 0-3.981 0-7.962 0-12.064-4.118 0-8.237 0-12.48 0 0-4.118 0-8.237 0-12.48-3.981 0-7.962 0-12.064 0 0-3.981 0-7.962 0-12.064-4.118 0-8.237 0-12.48 0 0-4.118 0-8.237 0-12.48-3.981 0-7.962 0-12.064 0 0-7.962 0-15.924 0-24.128 3.981 0 7.962 0 12.064 0 0-4.118 0-8.237 0-12.48 4.118 0 8.237 0 12.48 0 0-3.981 0-7.962 0-12.064 3.981 0 7.962 0 12.064 0 0-4.118 0-8.237 0-12.48 4.118 0 8.237 0 12.48 0 0-3.981 0-7.962 0-12.064 3.981 0 7.962 0 12.064 0 0-3.982 0-7.962 0-12.064 3.981 0 7.962 0 12.064 0 0-4.118 0-8.237 0-12.48 4.118 0 8.237 0 12.48 0 0-3.981 0-7.962 0-12.064z"></path>
<path fill="#fff" d="M243.936 48c7.962 0 15.924 0 24.128 0 0 3.981 0 7.962 0 12.064 4.118 0 8.237 0 12.48 0 0 4.118 0 8.237 0 12.48 3.981 0 7.962 0 12.064 0 0 3.981 0 7.962 0 12.064 4.118 0 8.237 0 12.48 0 0 4.118 0 8.237 0 12.48 3.981 0 7.962 0 12.064 0 0 3.981 0 7.962 0 12.064 3.981 0 7.962 0 12.064 0 0 3.981 0 7.962 0 12.064 4.118 0 8.237 0 12.48 0 0 4.118 0 8.237 0 12.48 3.981 0 7.962 0 12.064 0 0 3.981 0 7.962 0 12.064-20.18 0-40.361 0-61.152 0 0-3.981 0-7.962 0-12.064-3.981 0-7.962 0-12.064 0 0-4.118 0-8.237 0-12.48-4.118 0-8.237 0-12.48 0 0-3.981 0-7.962 0-12.064-7.962 0-15.924 0-24.128 0 0 3.981 0 7.962 0 12.064-4.118 0-8.237 0-12.48 0 0 4.118 0 8.237 0 12.48-3.982 0-7.962 0-12.064 0 0 3.981 0 7.962 0 12.064-20.179 0-40.361 0-61.152 0 0-3.981 0-7.962 0-12.064 3.981 0 7.962 0 12.064 0 0-4.118 0-8.237 0-12.48 4.118 0 8.237 0 12.48 0 0-3.981 0-7.962 0-12.064 3.982 0 7.962 0 12.064 0 0-3.981 0-7.962 0-12.064 3.981 0 7.962 0 12.064 0 0-4.118 0-8.237 0-12.48 4.118 0 8.237 0 12.48 0 0-3.981 0-7.962 0-12.064 3.981 0 7.962 0 12.064 0 0-4.118 0-8.237 0-12.48 4.118 0 8.237 0 12.48 0 0-3.981 0-7.962 0-12.064z"></path>
<path fill="#fff" d="M390.784 341.696c3.981 0 7.962 0 12.064 0 0 20.18 0 40.361 0 61.152-20.18 0-40.361 0-61.152 0 0-3.981 0-7.962 0-12.064 3.981 0 7.962 0 12.064 0 0-4.118 0-8.237 0-12.48 4.118 0 8.237 0 12.48 0 0-3.981 0-7.962 0-12.064 3.981 0 7.962 0 12.064 0 0-4.118 0-8.237 0-12.48 4.118 0 8.237 0 12.48 0 0-3.981 0-7.962 0-12.064z"></path>
<path fill="#fff" d="M109.152 341.696c3.981 0 7.962 0 12.064 0 0 3.981 0 7.962 0 12.064 4.118 0 8.237 0 12.48 0 0 4.118 0 8.237 0 12.48 3.981 0 7.962 0 12.064 0 0 3.981 0 7.962 0 12.064 4.118 0 8.237 0 12.48 0 0 4.118 0 8.237 0 12.48 3.981 0 7.962 0 12.064 0 0 3.981 0 7.962 0 12.064-20.179 0-40.361 0-61.152 0 0-20.18 0-40.361 0-61.152z"></path>
<path fill="#fff" d="M341.696 109.152c20.18 0 40.361 0 61.152 0 0 20.18 0 40.36 0 61.152-3.981 0-7.962 0-12.064 0 0-3.981 0-7.962 0-12.064-4.118 0-8.237 0-12.48 0 0-4.118 0-8.237 0-12.48-3.981 0-7.962 0-12.064 0 0-3.981 0-7.962 0-12.064-4.118 0-8.237 0-12.48 0 0-4.118 0-8.237 0-12.48-3.981 0-7.962 0-12.064 0 0-3.981 0-7.962 0-12.064z"></path>
<path fill="#fff" d="M109.152 109.152c20.18 0 40.36 0 61.152 0 0 3.981 0 7.962 0 12.064-3.981 0-7.962 0-12.064 0 0 4.118 0 8.237 0 12.48-4.118 0-8.237 0-12.48 0 0 3.981 0 7.962 0 12.064-3.981 0-7.962 0-12.064 0 0 4.118 0 8.237 0 12.48-4.118 0-8.237 0-12.48 0 0 3.981 0 7.962 0 12.064-3.981 0-7.962 0-12.064 0 0-20.179 0-40.361 0-61.152z"></path>
<path fill="#fff" d="M231.456 366.24c16.2 0 32.398 0 49.088 0 0 3.981 0 7.962 0 12.064-4.118 0-8.237 0-12.48 0 0 4.118 0 8.237 0 12.48-7.962 0-15.924 0-24.128 0 0-4.118 0-8.237 0-12.48-4.118 0-8.237 0-12.48 0 0-3.981 0-7.962 0-12.064z"></path>
<path fill="#fff" d="M366.24 231.456c3.981 0 7.962 0 12.064 0 0 4.118 0 8.237 0 12.48 4.118 0 8.237 0 12.48 0 0 7.962 0 15.925 0 24.128-4.118 0-8.237 0-12.48 0 0 4.118 0 8.237 0 12.48-3.981 0-7.962 0-12.064 0 0-16.2 0-32.399 0-49.088z"></path>
<path fill="#fff" d="M133.696 231.456c3.981 0 7.962 0 12.064 0 0 16.2 0 32.398 0 49.088-3.981 0-7.962 0-12.064 0 0-4.118 0-8.237 0-12.48-4.118 0-8.237 0-12.48 0 0-7.962 0-15.924 0-24.128 4.118 0 8.237 0 12.48 0 0-4.118 0-8.237 0-12.48z"></path>
<path fill="#fff" d="M243.936 121.216c7.962 0 15.924 0 24.128 0 0 4.118 0 8.237 0 12.48 4.118 0 8.237 0 12.48 0 0 3.981 0 7.962 0 12.064-16.2 0-32.399 0-49.088 0 0-3.981 0-7.962 0-12.064 4.118 0 8.237 0 12.48 0 0-4.118 0-8.237 0-12.48z"></path>
</svg>
