<svg height="44" viewBox="0 0 44 44" width="44" xmlns="http://www.w3.org/2000/svg"><path d="m7.1 31.25c2.1-1.4666667 4.1833333-2.5916667 6.25-3.375s4.2833333-1.175 6.65-1.175 4.5916667.3916667 6.675 1.175 4.175 1.9083333 6.275 3.375c1.4666667-1.8 2.5083333-3.6166667 3.125-5.45s.925-3.7666667.925-5.8c0-4.8333333-1.625-8.875-4.875-12.125s-7.2916667-4.875-12.125-4.875-8.875 1.625-12.125 4.875-4.875 7.2916667-4.875 12.125c0 2.0333333.31666667 3.9666667.95 5.8s1.68333333 3.65 3.15 5.45zm12.9-9.75c-1.9333333 0-3.5583333-.6583333-4.875-1.975s-1.975-2.9416667-1.975-4.875.6583333-3.5583333 1.975-4.875c1.3166667-1.31666667 2.9416667-1.975 4.875-1.975s3.5583333.65833333 4.875 1.975c1.3166667 1.3166667 1.975 2.9416667 1.975 4.875s-.6583333 3.5583333-1.975 4.875-2.9416667 1.975-4.875 1.975zm0 18.5c-2.7333333 0-5.3166667-.525-7.75-1.575-2.43333333-1.05-4.55833333-2.4833333-6.375-4.3s-3.25-3.9416667-4.3-6.375-1.575-5.0166667-1.575-7.75c0-2.7666667.525-5.3583333 1.575-7.775 1.05-2.41666667 2.48333333-4.53333333 4.3-6.35s3.94166667-3.25 6.375-4.3c2.4333333-1.05 5.0166667-1.575 7.75-1.575 2.7666667 0 5.3583333.525 7.775 1.575s4.5333333 2.48333333 6.35 4.3 3.25 3.93333333 4.3 6.35c1.05 2.4166667 1.575 5.0083333 1.575 7.775 0 2.7333333-.525 5.3166667-1.575 7.75s-2.4833333 4.5583333-4.3 6.375-3.9333333 3.25-6.35 4.3-5.0083333 1.575-7.775 1.575zm0-3c1.8333333 0 3.625-.2666667 5.375-.8s3.475-1.4666667 5.175-2.8c-1.7-1.2-3.4333333-2.1166667-5.2-2.75s-3.55-.95-5.35-.95-3.5833333.3166667-5.35.95-3.5 1.55-5.2 2.75c1.7 1.3333333 3.425 2.2666667 5.175 2.8s3.5416667.8 5.375.8zm0-18.5c1.1333333 0 2.0583333-.3583333 2.775-1.075s1.075-1.6416667 1.075-2.775-.3583333-2.0583333-1.075-2.775-1.6416667-1.075-2.775-1.075-2.0583333.3583333-2.775 1.075-1.075 1.6416667-1.075 2.775.3583333 2.0583333 1.075 2.775 1.6416667 1.075 2.775 1.075z" transform="translate(2 2)"/></svg>