<svg width="24" height="24" viewBox="0 0 24 24" fill="none" xmlns="http://www.w3.org/2000/svg">
<g clip-path="url(#clip0)">
<g filter="url(#filter0_d)">
<path d="M2 14.5629L13.9059 3.23841L14.302 3L22 10.653L11.8515 21L7.12376 20.8093L2 14.5629Z" fill="#191919"/>
<path fill-rule="evenodd" clip-rule="evenodd" d="M2.29964 13.172C1.42095 14.0507 1.42095 15.4753 2.29964 16.354L6.93986 20.9942C7.36182 21.4162 7.93411 21.6532 8.53085 21.6532H11.3167C11.8743 21.6532 12.4121 21.4462 12.8257 21.0722L13.5459 20.421L21.7165 12.2504C22.5952 11.3717 22.5952 9.94709 21.7165 9.06841L15.6508 3.00276C14.7722 2.12408 13.3475 2.12408 12.4689 3.00276L2.29964 13.172ZM3.36029 15.2933C3.0674 15.0004 3.0674 14.5256 3.36029 14.2327L6.88346 10.7095L14.0098 17.8358L12.5119 19.3337L11.8197 19.9595C11.6818 20.0842 11.5026 20.1532 11.3167 20.1532L8.53085 20.1532C8.33194 20.1532 8.14117 20.0742 8.00052 19.9336L3.36029 15.2933ZM15.0704 16.7751L20.6558 11.1897C20.9487 10.8968 20.9487 10.422 20.6558 10.1291L14.5902 4.06342C14.2973 3.77053 13.8224 3.77053 13.5295 4.06342L7.94412 9.64883L15.0704 16.7751Z" fill="white"/>
</g>
</g>
<defs>
<filter id="filter0_d" x="-0.359375" y="1.34375" width="24.7349" height="23.3095" filterUnits="userSpaceOnUse" color-interpolation-filters="sRGB">
<feFlood flood-opacity="0" result="BackgroundImageFix"/>
<feColorMatrix in="SourceAlpha" type="matrix" values="0 0 0 0 0 0 0 0 0 0 0 0 0 0 0 0 0 0 127 0"/>
<feOffset dy="1"/>
<feGaussianBlur stdDeviation="1"/>
<feColorMatrix type="matrix" values="0 0 0 0 0 0 0 0 0 0 0 0 0 0 0 0 0 0 0.25 0"/>
<feBlend mode="normal" in2="BackgroundImageFix" result="effect1_dropShadow"/>
<feBlend mode="normal" in="SourceGraphic" in2="effect1_dropShadow" result="shape"/>
</filter>
<clipPath id="clip0">
<rect width="24" height="24" fill="white"/>
</clipPath>
</defs>
</svg>
