<svg width="24" height="24" viewBox="0 0 24 24" fill="none" xmlns="http://www.w3.org/2000/svg">
<g clip-path="url(#clip0)">
<g filter="url(#filter0_d)">
<path d="M12.3052 9.57275L3.28125 18.5948C2.69813 19.1788 2.25 21.7499 2.25 21.7499C2.25 21.7499 4.79906 21.3238 5.40516 20.7187L14.4281 11.6957" fill="#191919"/>
<path fill-rule="evenodd" clip-rule="evenodd" d="M12.8356 9.04248C13.1284 9.3354 13.1284 9.81028 12.8354 10.1031L3.81243 19.1243C3.81245 19.1243 3.80454 19.1327 3.78986 19.1539C3.77371 19.1772 3.75341 19.21 3.72965 19.2541C3.68154 19.3433 3.6291 19.4602 3.57434 19.6029C3.46467 19.8887 3.36215 20.2344 3.27312 20.579C3.25539 20.6476 3.23835 20.7156 3.22202 20.7824C3.28533 20.7671 3.3497 20.7512 3.41465 20.7346C3.75709 20.6471 4.10102 20.5455 4.38658 20.4354C4.52909 20.3804 4.64649 20.3273 4.7368 20.2781C4.78141 20.2538 4.81525 20.2327 4.83985 20.2155C4.85193 20.2071 4.86077 20.2002 4.86687 20.1952C4.87254 20.1906 4.87511 20.1881 4.87526 20.1879L13.8978 11.1654C14.1907 10.8725 14.6656 10.8725 14.9585 11.1654C15.2514 11.4583 15.2514 11.9332 14.9585 12.2261L5.93509 21.2494C5.66385 21.5202 5.26061 21.706 4.92637 21.8349C4.56352 21.9748 4.15654 22.0932 3.78595 22.1879C3.41259 22.2833 3.06117 22.3584 2.80404 22.4095C2.67508 22.4352 2.56888 22.455 2.49433 22.4685C2.45704 22.4752 2.4276 22.4804 2.40713 22.4839C2.3969 22.4857 2.3889 22.4871 2.38328 22.4881L2.37664 22.4892L2.37406 22.4896L2.37383 22.4897C2.37374 22.4897 2.37366 22.4897 2.25001 21.7499C1.51115 21.6212 1.51116 21.6211 1.51118 21.621L1.51166 21.6182L1.51283 21.6116C1.51383 21.606 1.51526 21.598 1.51711 21.5877C1.52082 21.5672 1.52622 21.5376 1.53324 21.5001C1.54729 21.4252 1.56785 21.3185 1.59433 21.1889C1.64713 20.9305 1.72419 20.5777 1.82081 20.2038C1.9167 19.8326 2.03554 19.426 2.17391 19.0655C2.30027 18.7362 2.48335 18.3325 2.7505 18.0649L11.7749 9.04237C12.0678 8.74951 12.5427 8.74956 12.8356 9.04248ZM2.25001 21.7499L1.51115 21.6212C1.46938 21.8608 1.54643 22.1058 1.71784 22.2784C1.88926 22.451 2.13373 22.5298 2.37366 22.4897L2.25001 21.7499Z" fill="white"/>
<path d="M17.611 10.6339L13.3654 6.38831C12.779 5.80198 11.8285 5.8019 11.2422 6.38815C10.656 6.97439 10.6561 7.92495 11.2424 8.51129L15.488 12.7569C16.0743 13.3432 17.0249 13.3433 17.6111 12.7571C18.1974 12.1708 18.1973 11.2203 17.611 10.6339Z" fill="#191919"/>
<path d="M13.5898 6.60932C13.5898 6.60932 14.5541 7.01104 15.3345 6.23057L17.8972 2.91979C18.7644 2.00994 20.2062 2.04369 21.0819 2.91979C21.9575 3.79541 21.9884 5.20775 21.0819 6.104L17.7687 8.66666C17.0352 9.40026 17.39 10.4113 17.39 10.4113" fill="#191919"/>
<path fill-rule="evenodd" clip-rule="evenodd" d="M12.835 6.91876C12.5415 6.62524 12.0658 6.62532 11.7726 6.91859C11.4793 7.21186 11.4792 7.68755 11.7727 7.98107L16.0183 12.2267C16.3119 12.5202 16.7875 12.5201 17.0808 12.2269C17.3741 11.9336 17.3742 11.4579 17.0807 11.1644L12.835 6.91876ZM10.7119 5.85793C11.5911 4.97872 13.0165 4.97895 13.8957 5.8581L18.1413 10.1037C19.0205 10.9829 19.0207 12.4083 18.1415 13.2875C17.2623 14.1667 15.8368 14.1665 14.9577 13.2874L10.7121 9.04173C9.83291 8.16258 9.83268 6.73715 10.7119 5.85793Z" fill="white"/>
<path fill-rule="evenodd" clip-rule="evenodd" d="M18.4634 3.41262L15.9268 6.68968C15.9074 6.71473 15.8865 6.73853 15.8641 6.76093C15.3005 7.32446 14.6534 7.46679 14.1624 7.46263C13.9219 7.46059 13.7174 7.42413 13.5712 7.38784C13.4975 7.36953 13.4366 7.35078 13.3911 7.33534C13.3683 7.32761 13.3492 7.32064 13.334 7.3149C13.3265 7.31203 13.3199 7.30945 13.3143 7.30723C13.3115 7.30612 13.309 7.3051 13.3067 7.30417L13.3035 7.30285L13.302 7.30224L13.3013 7.30195C13.301 7.30181 13.3006 7.30167 13.5891 6.60935L13.3006 7.30167C12.9183 7.14237 12.7374 6.70327 12.8967 6.32092C13.0546 5.94194 13.4874 5.76095 13.8674 5.9129C13.8685 5.91331 13.8704 5.91397 13.8729 5.91484C13.8832 5.91832 13.9038 5.92486 13.9326 5.93202C13.9916 5.94666 14.077 5.96185 14.1751 5.96268C14.3527 5.96419 14.5659 5.92142 14.7736 5.72902L17.3033 2.46075C17.319 2.44045 17.3358 2.42096 17.3535 2.40237C18.5301 1.16786 20.4577 1.23511 21.6116 2.38964C22.7715 3.54969 22.8203 5.43929 21.6084 6.6374C21.5868 6.65873 21.5639 6.67873 21.5399 6.69729L18.2704 9.22627C18.1058 9.40683 18.0552 9.61731 18.0535 9.82065C18.0525 9.92854 18.0661 10.024 18.0799 10.0912C18.0867 10.1241 18.0931 10.1482 18.0968 10.1614C18.0982 10.1661 18.0991 10.1694 18.0996 10.1709C18.2313 10.5596 18.0258 10.9828 17.6376 11.1191C17.2467 11.2562 16.8187 11.0506 16.6815 10.6597L17.3892 10.4114C16.6815 10.6597 16.6814 10.6594 16.6813 10.6591L16.6811 10.6585L16.6806 10.6571L16.6796 10.6541C16.6788 10.652 16.678 10.6496 16.6771 10.6469C16.6753 10.6416 16.6732 10.6352 16.6709 10.6278C16.6662 10.6131 16.6604 10.5942 16.654 10.5717C16.6412 10.5266 16.6256 10.4661 16.6105 10.3927C16.5807 10.2474 16.5515 10.0442 16.5535 9.80763C16.5576 9.3331 16.6909 8.68312 17.2376 8.13637C17.2601 8.1139 17.284 8.09289 17.3091 8.07345L20.5827 5.54137C21.1544 4.94597 21.1323 4.03173 20.5508 3.45015L20.5506 3.45001C19.9618 2.86086 19.0242 2.85222 18.4634 3.41262Z" fill="white"/>
<path fill-rule="evenodd" clip-rule="evenodd" d="M3.91212 19.0012C4.13542 18.6549 4.03752 18.1928 3.69214 17.967C3.34544 17.7404 2.88065 17.8377 2.654 18.1844L3.28176 18.5948C2.654 18.1844 2.65384 18.1847 2.65367 18.1849L2.65333 18.1855L2.65258 18.1866L2.65086 18.1893C2.64961 18.1912 2.64816 18.1935 2.64653 18.196C2.64327 18.2012 2.63925 18.2076 2.63455 18.2152C2.62518 18.2304 2.61306 18.2505 2.59887 18.2751C2.57058 18.3241 2.53353 18.3919 2.49325 18.4749C2.41386 18.6387 2.31585 18.8742 2.25113 19.1517C2.12266 19.7025 2.10762 20.5362 2.78674 21.215C3.46575 21.8936 4.29912 21.8783 4.84986 21.7495C5.12725 21.6847 5.36262 21.5866 5.52622 21.5071C5.60922 21.4668 5.67694 21.4297 5.72595 21.4014C5.75053 21.3871 5.77063 21.375 5.78582 21.3656C5.79342 21.3609 5.79981 21.3569 5.80494 21.3536C5.80573 21.3531 5.80649 21.3527 5.80721 21.3522C5.80886 21.3511 5.81036 21.3502 5.8117 21.3493L5.81436 21.3476L5.81551 21.3468L5.81604 21.3465C5.81629 21.3463 5.81654 21.3462 5.40567 20.7187L5.81654 21.3462C6.16307 21.1192 6.26003 20.6544 6.03311 20.3078C5.80707 19.9627 5.3449 19.8651 4.99881 20.0887C4.99846 20.0889 4.99793 20.0892 4.99723 20.0896C4.99382 20.0918 4.98642 20.0963 4.97541 20.1026C4.95323 20.1154 4.91735 20.1352 4.87075 20.1579C4.77513 20.2043 4.64721 20.2565 4.50835 20.2889C4.2266 20.3548 4.01559 20.3224 3.8471 20.154C3.67872 19.9857 3.6461 19.7746 3.71193 19.4924C3.74436 19.3533 3.79647 19.2252 3.84291 19.1295C3.86554 19.0828 3.88534 19.0469 3.89816 19.0246C3.90452 19.0136 3.90903 19.0062 3.91114 19.0028C3.91157 19.0021 3.9119 19.0016 3.91212 19.0012ZM4.99574 20.0907L4.99572 20.0907L4.99527 20.091C4.99504 20.0911 4.9948 20.0913 5.39915 20.7088L4.9948 20.0913C4.99511 20.0911 4.99543 20.0909 4.99574 20.0907Z" fill="white"/>
</g>
</g>
<defs>
<filter id="filter0_d" x="-0.5" y="0.5" width="24.9995" height="25" filterUnits="userSpaceOnUse" color-interpolation-filters="sRGB">
<feFlood flood-opacity="0" result="BackgroundImageFix"/>
<feColorMatrix in="SourceAlpha" type="matrix" values="0 0 0 0 0 0 0 0 0 0 0 0 0 0 0 0 0 0 127 0"/>
<feOffset dy="1"/>
<feGaussianBlur stdDeviation="1"/>
<feColorMatrix type="matrix" values="0 0 0 0 0 0 0 0 0 0 0 0 0 0 0 0 0 0 0.25 0"/>
<feBlend mode="normal" in2="BackgroundImageFix" result="effect1_dropShadow"/>
<feBlend mode="normal" in="SourceGraphic" in2="effect1_dropShadow" result="shape"/>
</filter>
<clipPath id="clip0">
<rect width="24" height="24" fill="white"/>
</clipPath>
</defs>
</svg>
