<svg width="24" height="24" viewBox="0 0 24 24" fill="none" xmlns="http://www.w3.org/2000/svg">
<g clip-path="url(#clip0)">
<g filter="url(#filter0_d)">
<path d="M19.6453 15.8178C19.628 15.7966 19.6062 15.7795 19.5815 15.7678C19.5567 15.7561 19.5297 15.75 19.5023 15.75C19.475 15.75 19.448 15.7561 19.4232 15.7678C19.3985 15.7795 19.3767 15.7966 19.3594 15.8178C18.8672 16.399 17.25 17.9998 17.25 19.4581C17.25 20.7237 18.2578 21.7498 19.5 21.7498C20.7422 21.7498 21.75 20.7186 21.75 19.4581C21.75 17.9998 20.1422 16.399 19.6453 15.8178Z" fill="black"/>
<path fill-rule="evenodd" clip-rule="evenodd" d="M19.102 15.0901C19.2271 15.0308 19.3638 15 19.5023 15C19.6408 15 19.7776 15.0308 19.9027 15.0901C20.0243 15.1477 20.132 15.231 20.2185 15.334C20.264 15.3871 20.3262 15.4566 20.4007 15.5397C20.6741 15.8449 21.1127 16.3345 21.496 16.8755C21.9779 17.5559 22.5 18.4837 22.5 19.4581C22.5 21.1187 21.1703 22.4998 19.5 22.4998C17.8308 22.4998 16.5 21.125 16.5 19.4581C16.5 18.4825 17.0256 17.5541 17.5089 16.8744C17.8857 16.3445 18.32 15.8585 18.5923 15.5539C18.6722 15.4644 18.7382 15.3906 18.7846 15.3359C18.8714 15.232 18.9796 15.1481 19.102 15.0901ZM19.503 16.7879C19.2651 17.0569 18.9937 17.3748 18.7314 17.7436C18.283 18.3743 18 18.9754 18 19.4581C18 20.3225 18.6849 20.9998 19.5 20.9998C20.314 20.9998 21 20.3184 21 19.4581C21 18.9742 20.7182 18.3725 20.272 17.7426C20.0123 17.376 19.7409 17.0569 19.503 16.7879Z" fill="white"/>
<path d="M18.14 13.4953L7.29364 2.73559C7.13687 2.57827 6.95058 2.45344 6.74546 2.36827C6.54034 2.2831 6.32043 2.23926 6.09833 2.23926C5.87623 2.23926 5.65632 2.2831 5.4512 2.36827C5.24608 2.45344 5.05979 2.57827 4.90302 2.73559L4.66161 2.97699C4.50429 3.13377 4.37947 3.32006 4.29429 3.52518C4.20912 3.73029 4.16528 3.95021 4.16528 4.17231C4.16528 4.39441 4.20912 4.61432 4.29429 4.81944C4.37947 5.02456 4.50429 5.21085 4.66161 5.36762L7.14083 7.84684L9.81271 5.17496L2.63989 12.3375C2.51608 12.4606 2.41808 12.6072 2.35164 12.7687C2.2852 12.9302 2.25166 13.1033 2.25297 13.2779C2.25428 13.4525 2.29042 13.6251 2.35927 13.7856C2.42813 13.9461 2.52831 14.0912 2.65396 14.2125L8.80395 20.1187C9.04953 20.3538 9.37664 20.4847 9.71662 20.4838C10.0566 20.4829 10.383 20.3504 10.6274 20.114C12.3993 18.3984 16.1727 14.7468 16.5665 14.3531C16.8383 14.0812 17.4196 14.0203 17.9118 14.0203H17.9258C17.9867 14.0203 18.0462 14.0022 18.0967 13.9683C18.1472 13.9344 18.1865 13.8862 18.2095 13.8298C18.2325 13.7735 18.2382 13.7115 18.2258 13.652C18.2134 13.5924 18.1836 13.5378 18.14 13.4953V13.4953Z" fill="black"/>
<path fill-rule="evenodd" clip-rule="evenodd" d="M5.16358 1.67561C5.45987 1.55259 5.77752 1.48926 6.09833 1.48926C6.41914 1.48926 6.73679 1.55259 7.03308 1.67561C7.32863 1.79834 7.59712 1.97806 7.82323 2.20451C7.82378 2.20507 7.82434 2.20562 7.82489 2.20618L18.6643 12.9589C18.6652 12.9598 18.666 12.9606 18.6669 12.9615C18.8157 13.1079 18.9177 13.2951 18.9601 13.4995C19.0028 13.7051 18.9833 13.9188 18.9039 14.1132C18.8246 14.3076 18.6891 14.474 18.5148 14.591C18.3404 14.708 18.1351 14.7705 17.9252 14.7703L17.9258 14.0203V14.7703H17.9252H17.9118C17.6902 14.7703 17.4779 14.7845 17.3067 14.8195C17.1458 14.8524 17.093 14.8893 17.0922 14.8882C17.0922 14.8881 17.0923 14.8879 17.0927 14.8875C17.0941 14.8861 17.0955 14.8848 17.0968 14.8834C17.0948 14.8854 17.0934 14.8868 17.0927 14.8875C16.7209 15.2586 13.7375 18.1469 11.834 19.9897C11.5844 20.2314 11.3533 20.4551 11.1491 20.6528L11.1488 20.6531C10.7651 21.0243 10.2525 21.2324 9.71855 21.2338C9.18464 21.2352 8.67095 21.0297 8.28529 20.6605L8.28487 20.6601L2.13378 14.7528L2.13311 14.7521C1.93567 14.5616 1.77824 14.3335 1.67004 14.0813C1.56184 13.8292 1.50505 13.5579 1.50299 13.2835C1.50093 13.0091 1.55365 12.7371 1.65805 12.4833C1.76236 12.2298 1.91615 11.9996 2.11044 11.8063L2.10994 11.8068L2.63989 12.3375L2.11101 11.8057L6.07787 7.84453L7.13853 8.9052L3.16931 12.8687L3.16877 12.8692C3.11571 12.922 3.07371 12.9848 3.04524 13.0541C3.01676 13.1233 3.00238 13.1975 3.00295 13.2723C3.00351 13.3471 3.019 13.4211 3.0485 13.4899C3.07791 13.5584 3.12066 13.6204 3.17425 13.6723L3.17346 13.6715L2.65402 14.2124L3.1748 13.6728L9.32262 19.577L8.80395 20.1187L9.32346 19.5778L9.32308 19.5774C9.42852 19.6781 9.56885 19.7342 9.71469 19.7338C9.86074 19.7334 10.001 19.6765 10.1059 19.575C10.1059 19.575 10.1058 19.5751 10.1057 19.5752L10.6274 20.114L10.1059 19.575C10.3097 19.3777 10.5395 19.1552 10.7874 18.9152C12.7019 17.0617 15.6926 14.1663 16.0361 13.8228C16.3068 13.5521 16.6604 13.4277 16.9424 13.3637L17.6119 14.0277C17.6132 14.029 17.6145 14.0303 17.6158 14.0316L18.14 13.4953L17.6119 14.0277C17.5509 13.9666 17.509 13.889 17.4915 13.8044C17.4735 13.718 17.4817 13.6282 17.5151 13.5465C17.5484 13.4648 17.6054 13.3948 17.6787 13.3456C17.7479 13.2992 17.8287 13.2732 17.9118 13.2705C17.9164 13.2704 17.9211 13.2703 17.9257 13.2703M17.9257 13.2703H17.9118C17.6411 13.2703 17.3167 13.2865 17.0063 13.3499C16.9855 13.3542 16.9642 13.3587 16.9424 13.3637L9.78494 6.26339L10.343 5.70529L9.28276 4.64425L8.71961 5.20659L6.76391 3.26652L6.76239 3.265C6.6753 3.1776 6.5718 3.10825 6.45785 3.06093C6.34389 3.01361 6.22172 2.98926 6.09833 2.98926C5.97494 2.98926 5.85277 3.01361 5.73881 3.06093C5.62486 3.10825 5.52136 3.1776 5.43427 3.265L5.43381 3.26546L5.19148 3.50779L5.19102 3.50824C5.10362 3.59534 5.03427 3.69884 4.98696 3.81279C4.93964 3.92674 4.91528 4.04892 4.91528 4.17231C4.91528 4.2957 4.93964 4.41787 4.98696 4.53182C5.03427 4.64578 5.10362 4.74927 5.19102 4.83637L5.19148 4.83683L7.13929 6.78464L6.07787 7.84453L4.1322 5.89887L4.66161 5.36762L4.13128 5.89795L4.1317 5.89836C3.90469 5.67202 3.72457 5.40312 3.60163 5.10705C3.47861 4.81077 3.41528 4.49312 3.41528 4.17231C3.41528 3.8515 3.47861 3.53384 3.60163 3.23756C3.72456 2.94151 3.90468 2.67262 4.13166 2.44628L4.13128 2.44666L4.66161 2.97699L4.1322 2.44574L4.37177 2.20618L4.90299 2.73556L4.37269 2.20526L4.37231 2.20564C4.59865 1.97865 4.86754 1.79854 5.16358 1.67561M7.14083 6.78618L7.13929 6.78464L8.71961 5.20659L8.72002 5.20699L7.14083 6.78618ZM9.78453 6.26299L7.13853 8.9052L7.14083 8.9075L9.78494 6.26339L9.78453 6.26299Z" fill="white"/>
<path fill-rule="evenodd" clip-rule="evenodd" d="M5.79785 8.11768L9.47754 4.43799L10.5382 5.49865L6.85851 9.17834L5.79785 8.11768Z" fill="white"/>
<path fill-rule="evenodd" clip-rule="evenodd" d="M16.8516 12.9375L18 13.0312L18.2344 13.7684L17.1094 14.4375L16.8516 12.9375Z" fill="white"/>
</g>
</g>
<defs>
<filter id="filter0_d" x="-0.49707" y="0.489258" width="24.9971" height="25.0105" filterUnits="userSpaceOnUse" color-interpolation-filters="sRGB">
<feFlood flood-opacity="0" result="BackgroundImageFix"/>
<feColorMatrix in="SourceAlpha" type="matrix" values="0 0 0 0 0 0 0 0 0 0 0 0 0 0 0 0 0 0 127 0"/>
<feOffset dy="1"/>
<feGaussianBlur stdDeviation="1"/>
<feColorMatrix type="matrix" values="0 0 0 0 0 0 0 0 0 0 0 0 0 0 0 0 0 0 0.25 0"/>
<feBlend mode="normal" in2="BackgroundImageFix" result="effect1_dropShadow"/>
<feBlend mode="normal" in="SourceGraphic" in2="effect1_dropShadow" result="shape"/>
</filter>
<clipPath id="clip0">
<rect width="24" height="24" fill="white"/>
</clipPath>
</defs>
</svg>
