<svg width="24" height="24" viewBox="0 0 24 24" fill="none" xmlns="http://www.w3.org/2000/svg">
<g clip-path="url(#clip0)">
<g filter="url(#filter0_d)">
<path d="M8.04203 3.66653V13.2916L5.75034 10.0832L4.37533 9.62491L3.91699 10.9999L6.66701 18.3333L9.87537 20.625H14.4587L16.2921 19.25L19.0421 15.5833V7.79156L18.1254 5.04154H16.2921L15.8338 3.66653L14.9171 2.29151L13.5421 3.20819L12.6254 0.916504H11.2504L10.3337 3.66653L8.9587 2.74985L8.04203 3.66653Z" fill="#191919"/>
<path fill-rule="evenodd" clip-rule="evenodd" d="M15.9791 4.7291C16.3659 4.3423 16.8905 4.125 17.4375 4.125C17.9845 4.125 18.5091 4.3423 18.8959 4.7291C19.2827 5.11589 19.5 5.6405 19.5 6.18752V13.7501C19.5 14.1298 19.1922 14.4376 18.8125 14.4376C18.4328 14.4376 18.125 14.1298 18.125 13.7501V6.18752C18.125 6.00518 18.0526 5.83031 17.9237 5.70138C17.7947 5.57244 17.6199 5.50001 17.4375 5.50001C17.2552 5.50001 17.0803 5.57244 16.9514 5.70138C16.8224 5.83031 16.75 6.00518 16.75 6.18752V11.0001C16.75 11.3798 16.4422 11.6876 16.0625 11.6876C15.6828 11.6876 15.375 11.3798 15.375 11.0001V6.18752C15.375 5.6405 15.5923 5.11589 15.9791 4.7291Z" fill="white"/>
<path fill-rule="evenodd" clip-rule="evenodd" d="M13.2291 1.9791C13.6159 1.5923 14.1405 1.375 14.6875 1.375C15.2345 1.375 15.7591 1.5923 16.1459 1.9791C16.5327 2.36589 16.75 2.8905 16.75 3.43752V11.0001C16.75 11.3798 16.4422 11.6876 16.0625 11.6876C15.6828 11.6876 15.375 11.3798 15.375 11.0001V3.43752C15.375 3.25518 15.3026 3.08031 15.1737 2.95138C15.0447 2.82244 14.8699 2.75001 14.6875 2.75001C14.5052 2.75001 14.3303 2.82244 14.2014 2.95138C14.0724 3.08031 14 3.25518 14 3.43752V10.3126C14 10.6923 13.6922 11.0001 13.3125 11.0001C12.9328 11.0001 12.625 10.6923 12.625 10.3126V3.43752C12.625 2.8905 12.8423 2.36589 13.2291 1.9791Z" fill="white"/>
<path fill-rule="evenodd" clip-rule="evenodd" d="M7.7291 2.6666C8.11589 2.2798 8.6405 2.0625 9.18752 2.0625C9.73453 2.0625 10.2591 2.2798 10.6459 2.6666C11.0327 3.05339 11.25 3.578 11.25 4.12502V10.3555C11.25 10.7352 10.9422 11.043 10.5625 11.043C10.1828 11.043 9.87502 10.7352 9.87502 10.3555V4.12502C9.87502 3.94268 9.80259 3.76781 9.67366 3.63888C9.54472 3.50994 9.36985 3.43751 9.18752 3.43751C9.00518 3.43751 8.83031 3.50994 8.70138 3.63888C8.57244 3.76781 8.50001 3.94268 8.50001 4.12502V13.7501C8.50001 14.1298 8.1922 14.4376 7.81251 14.4376C7.43281 14.4376 7.125 14.1298 7.125 13.7501V4.12502C7.125 3.578 7.3423 3.05339 7.7291 2.6666Z" fill="white"/>
<path fill-rule="evenodd" clip-rule="evenodd" d="M10.4791 0.604097C10.8659 0.2173 11.3905 0 11.9375 0C12.4845 0 13.0091 0.2173 13.3959 0.604097C13.7827 0.990894 14 1.5155 14 2.06252V10.3126C14 10.6923 13.6922 11.0001 13.3125 11.0001C12.9328 11.0001 12.625 10.6923 12.625 10.3126V2.06252C12.625 1.88018 12.5526 1.70531 12.4237 1.57638C12.2947 1.44744 12.1199 1.37501 11.9375 1.37501C11.7552 1.37501 11.5803 1.44744 11.4514 1.57638C11.3224 1.70531 11.25 1.88018 11.25 2.06252V10.3126C11.25 10.6923 10.9422 11.0001 10.5625 11.0001C10.1828 11.0001 9.875 10.6923 9.875 10.3126V2.06252C9.875 1.5155 10.0923 0.990894 10.4791 0.604097Z" fill="white"/>
<path fill-rule="evenodd" clip-rule="evenodd" d="M5.62409 10.2701C5.45869 9.98797 5.04593 9.85995 4.68038 10.0677L4.68026 10.0678C4.50754 10.1659 4.42969 10.2857 4.39592 10.4225C4.35762 10.5777 4.36573 10.8075 4.47565 11.1054L4.47632 11.1073L6.73394 17.2796C7.13996 18.2436 7.67415 19.0584 8.49459 19.6409C9.31621 20.2243 10.4957 20.6247 12.2814 20.6247C14.015 20.6247 15.4513 20.0517 16.4592 18.957C17.4721 17.8569 18.1252 16.1503 18.1252 13.7497C18.1252 13.37 18.433 13.0622 18.8127 13.0622C19.1924 13.0622 19.5002 13.37 19.5002 13.7497C19.5002 16.3937 18.7782 18.4683 17.4708 19.8884C16.1584 21.3138 14.329 21.9997 12.2814 21.9997C10.2858 21.9997 8.80743 21.5494 7.69855 20.7621C6.59258 19.9768 5.92487 18.9062 5.45979 17.7968C5.45568 17.787 5.45181 17.7771 5.44816 17.7671L3.18565 11.5814C3.18553 11.5811 3.18542 11.5808 3.1853 11.5805C3.00931 11.103 2.93939 10.5857 3.06096 10.0931C3.18713 9.58178 3.50735 9.15269 4.00101 8.87224C4.00105 8.87221 4.00109 8.87219 4.00113 8.87217C4.96001 8.32732 6.28767 8.57744 6.85304 9.65164C6.86276 9.67011 6.87164 9.68902 6.87964 9.7083L8.44758 13.4861C8.59314 13.8368 8.42683 14.2391 8.07614 14.3847C7.72545 14.5302 7.32316 14.3639 7.17761 14.0132L5.62409 10.2701Z" fill="white"/>
</g>
</g>
<defs>
<filter id="filter0_d" x="1" y="-1" width="20.5002" height="25.9998" filterUnits="userSpaceOnUse" color-interpolation-filters="sRGB">
<feFlood flood-opacity="0" result="BackgroundImageFix"/>
<feColorMatrix in="SourceAlpha" type="matrix" values="0 0 0 0 0 0 0 0 0 0 0 0 0 0 0 0 0 0 127 0"/>
<feOffset dy="1"/>
<feGaussianBlur stdDeviation="1"/>
<feColorMatrix type="matrix" values="0 0 0 0 0 0 0 0 0 0 0 0 0 0 0 0 0 0 0.25 0"/>
<feBlend mode="normal" in2="BackgroundImageFix" result="effect1_dropShadow"/>
<feBlend mode="normal" in="SourceGraphic" in2="effect1_dropShadow" result="shape"/>
</filter>
<clipPath id="clip0">
<rect width="24" height="24" fill="white"/>
</clipPath>
</defs>
</svg>
